# xmcd CD database file
#
# Track frame offsets:
#	150
#	7983
#	18120
#	26573
#	37115
#	47988
#	56840
#	70978
#	81668
#	96328
#	105230
#
# Disc length: 1519 seconds
#
# Revision: 2
# Processed by: cddbd v1.5.2PL0 Copyright (c) Steve Scherf et al.
# Submitted via: CDex 1.51
#
DISCID=8d05ed0b
DTITLE=Roger Miller - Dang Me!
DYEAR=1992
DGENRE=Country
TTITLE0=Dang Me
TTITLE1=Engine Engine #9
TTITLE2=Can't Rollerskate In A Buffalo Herd
TTITLE3=Release Me
TTITLE4=Don't We All Have The Right To Be Wrong
TTITLE5=My Uncle Used To Love Me (But She Died)
TTITLE6=My Elusive Dreams
TTITLE7=When Two Worlds Collide
TTITLE8=Me And Bobby McGee
TTITLE9=Billy Bayou
TTITLE10=England Swings
EXTD=YEAR: 1992
EXTT0=
EXTT1=
EXTT2=
EXTT3=
EXTT4=
EXTT5=
EXTT6=
EXTT7=
EXTT8=
EXTT9=
EXTT10=
PLAYORDER=
